<svg xmlns="http://www.w3.org/2000/svg" xmlns:xlink="http://www.w3.org/1999/xlink" viewBox="0 0 64 64"><defs><style>.cls-1{fill:#484a32;}.cls-2{fill:#8e6f34;}.cls-3{fill:#ddab65;}.cls-4,.cls-5,.cls-6{opacity:0.9;}.cls-4{fill:url(#未命名的渐变_76);}.cls-5{fill:url(#未命名的渐变_76-2);}.cls-6{fill:url(#未命名的渐变_76-3);}.cls-7,.cls-8,.cls-9{fill:none;stroke-linecap:round;stroke-miterlimit:10;stroke-width:0.5px;}.cls-7{stroke:url(#未命名的渐变_91);}.cls-8{stroke:url(#未命名的渐变_91-2);}.cls-9{stroke:url(#未命名的渐变_91-3);}.cls-10{fill:url(#未命名的渐变_40);}.cls-11{fill:url(#未命名的渐变_25);}.cls-12{opacity:0.3;}.cls-13{fill:#261302;}</style><linearGradient id="未命名的渐变_76" x1="32" y1="4" x2="32" y2="25" gradientUnits="userSpaceOnUse"><stop offset="0" stop-color="#009acc"/><stop offset="0.22" stop-color="#009ece"/><stop offset="0.44" stop-color="#00abd5"/><stop offset="0.68" stop-color="#00c0e0"/><stop offset="0.91" stop-color="#00ddf0"/><stop offset="1" stop-color="#00eaf7"/></linearGradient><linearGradient id="未命名的渐变_76-2" x1="21.5" y1="16.83" x2="21.5" y2="31.87" xlink:href="#未命名的渐变_76"/><linearGradient id="未命名的渐变_76-3" x1="42.5" y1="14" x2="42.5" y2="34.85" xlink:href="#未命名的渐变_76"/><linearGradient id="未命名的渐变_91" x1="-155.33" y1="-204.69" x2="-134.34" y2="-204.69" gradientTransform="matrix(0.45, -0.89, -0.89, -0.45, -86.31, -184.95)" gradientUnits="userSpaceOnUse"><stop offset="0" stop-color="#fff" stop-opacity="0"/><stop offset="0.12" stop-color="#fff" stop-opacity="0.02"/><stop offset="0.24" stop-color="#fffefe" stop-opacity="0.07"/><stop offset="0.37" stop-color="#fffcfe" stop-opacity="0.15"/><stop offset="0.5" stop-color="#fff9fd" stop-opacity="0.26"/><stop offset="0.63" stop-color="#fff6fc" stop-opacity="0.41"/><stop offset="0.76" stop-color="#fff3fa" stop-opacity="0.59"/><stop offset="0.89" stop-color="#ffeef9" stop-opacity="0.8"/><stop offset="1" stop-color="#ffeaf7"/></linearGradient><linearGradient id="未命名的渐变_91-2" x1="11.26" y1="19.56" x2="32.25" y2="19.56" gradientTransform="matrix(1, 0, 0, 1, 0, 0)" xlink:href="#未命名的渐变_91"/><linearGradient id="未命名的渐变_91-3" x1="-656.74" y1="19.56" x2="-635.75" y2="19.56" gradientTransform="matrix(-1, 0, 0, 1, -604, 0)" xlink:href="#未命名的渐变_91"/><linearGradient id="未命名的渐变_40" x1="32" y1="46.5" x2="54" y2="46.5" gradientUnits="userSpaceOnUse"><stop offset="0" stop-color="#ba8349"/><stop offset="1" stop-color="#bf8b4e"/></linearGradient><linearGradient id="未命名的渐变_25" x1="10" y1="46.5" x2="32" y2="46.5" gradientUnits="userSpaceOnUse"><stop offset="0" stop-color="#c48c53"/><stop offset="1" stop-color="#c9975a"/></linearGradient></defs><title>64</title><g id="图层_20" data-name="图层 20"><g id="_64" data-name="64"><polygon class="cls-1" points="10 36 32 36 32 12 10 20.47 10 36"/><polygon class="cls-2" points="54 39 32 39 32 12 54 21.95 54 39"/><polygon class="cls-3" points="32 12 41 14 61.65 24.27 54 23 32 12"/><polygon class="cls-3" points="32 12 10 23 2 24.27 23 14 32 12"/><polygon class="cls-4" points="32 4 11 14 32 25 53 14 32 4"/><polygon class="cls-5" points="32 33.59 11 33.59 11 14 32 24.83 32 33.59"/><polygon class="cls-6" points="32 34.85 53 34.85 53 14 32 25 32 34.85"/><line class="cls-7" x1="32" y1="24.68" x2="32" y2="47.59"/><line class="cls-8" x1="32" y1="24.68" x2="11.51" y2="14.44"/><line class="cls-9" x1="32" y1="24.68" x2="52.49" y2="14.44"/><polygon class="cls-10" points="32 60 54 49.8 54 33 32 33 32 60"/><polygon class="cls-11" points="10 49.8 32 60 32 33 10 33 10 49.8"/><polygon class="cls-3" points="10 23 32 33 24 42 3 32 10 23"/><polygon class="cls-3" points="32.12 32.99 54 23 61 32 41 42 32.12 32.99"/><g class="cls-12"><polygon class="cls-13" points="23.6 48.6 32 50 40.4 48.6 32 57 23.6 48.6"/><polygon class="cls-13" points="36 51 28 51 28 39 32 40.33 36 39 36 51"/></g></g></g></svg>