<svg xmlns="http://www.w3.org/2000/svg" xmlns:xlink="http://www.w3.org/1999/xlink" viewBox="0 0 48 48"><defs><style>.cls-1{fill:#484a32;}.cls-2{fill:#8e6f34;}.cls-3{fill:#ddab65;}.cls-4,.cls-5,.cls-6{opacity:0.9;}.cls-4{fill:url(#未命名的渐变_76);}.cls-5{fill:url(#未命名的渐变_76-2);}.cls-6{fill:url(#未命名的渐变_76-3);}.cls-7,.cls-8,.cls-9{fill:none;stroke-linecap:round;stroke-miterlimit:10;stroke-width:0.5px;}.cls-7{stroke:url(#未命名的渐变_91);}.cls-8{stroke:url(#未命名的渐变_91-2);}.cls-9{stroke:url(#未命名的渐变_91-3);}.cls-10{fill:url(#未命名的渐变_40);}.cls-11{fill:url(#未命名的渐变_25);}.cls-12{opacity:0.3;}.cls-13{fill:#261302;}</style><linearGradient id="未命名的渐变_76" x1="24" y1="4" x2="24" y2="18.74" gradientUnits="userSpaceOnUse"><stop offset="0" stop-color="#009acc"/><stop offset="0.22" stop-color="#009ece"/><stop offset="0.44" stop-color="#00abd5"/><stop offset="0.68" stop-color="#00c0e0"/><stop offset="0.91" stop-color="#00ddf0"/><stop offset="1" stop-color="#00eaf7"/></linearGradient><linearGradient id="未命名的渐变_76-2" x1="16.5" y1="13.02" x2="16.5" y2="23.76" xlink:href="#未命名的渐变_76"/><linearGradient id="未命名的渐变_76-3" x1="31.5" y1="11" x2="31.5" y2="26.04" xlink:href="#未命名的渐变_76"/><linearGradient id="未命名的渐变_91" x1="-205.26" y1="-286.45" x2="-190.13" y2="-286.45" gradientTransform="matrix(0.45, -0.89, -0.89, -0.45, -143.8, -277.97)" gradientUnits="userSpaceOnUse"><stop offset="0" stop-color="#fff" stop-opacity="0"/><stop offset="0.12" stop-color="#fff" stop-opacity="0.02"/><stop offset="0.24" stop-color="#fffefe" stop-opacity="0.07"/><stop offset="0.37" stop-color="#fffcfe" stop-opacity="0.15"/><stop offset="0.5" stop-color="#fff9fd" stop-opacity="0.26"/><stop offset="0.63" stop-color="#fff6fc" stop-opacity="0.41"/><stop offset="0.76" stop-color="#fff3fa" stop-opacity="0.59"/><stop offset="0.89" stop-color="#ffeef9" stop-opacity="0.8"/><stop offset="1" stop-color="#ffeaf7"/></linearGradient><linearGradient id="未命名的渐变_91-2" x1="9.11" y1="15.11" x2="24.25" y2="15.11" gradientTransform="matrix(1, 0, 0, 1, 0, 0)" xlink:href="#未命名的渐变_91"/><linearGradient id="未命名的渐变_91-3" x1="-850.89" y1="15.11" x2="-835.75" y2="15.11" gradientTransform="matrix(-1, 0, 0, 1, -812, 0)" xlink:href="#未命名的渐变_91"/><linearGradient id="未命名的渐变_40" x1="24" y1="34.34" x2="40" y2="34.34" gradientUnits="userSpaceOnUse"><stop offset="0" stop-color="#ba8349"/><stop offset="1" stop-color="#bf8b4e"/></linearGradient><linearGradient id="未命名的渐变_25" x1="8" y1="34.34" x2="24" y2="34.34" gradientUnits="userSpaceOnUse"><stop offset="0" stop-color="#c48c53"/><stop offset="1" stop-color="#c9975a"/></linearGradient></defs><title>48</title><g id="图层_20" data-name="图层 20"><g id="_48" data-name="48"><polygon class="cls-1" points="8 27.08 24 27.08 24 9.35 8 15.61 8 27.08"/><polygon class="cls-2" points="40 29.17 24 29.17 24 9.35 40 16.65 40 29.17"/><polygon class="cls-3" points="24.09 9.35 31.15 11.21 46.73 18.3 40 17 24.09 9.35"/><polygon class="cls-3" points="24.09 9.35 8 17 1 18.3 17.17 10.82 24.09 9.35"/><polygon class="cls-4" points="24 4 9 11 23.97 18.74 39 11 24 4"/><polygon class="cls-5" points="24 25 9 25 9 11 24 18.74 24 25"/><polygon class="cls-6" points="24 26.04 39 26.04 39 11 24 18.74 24 26.04"/><line class="cls-7" x1="24" y1="18.77" x2="24" y2="35.14"/><line class="cls-8" x1="24" y1="18.77" x2="9.36" y2="11.45"/><line class="cls-9" x1="24" y1="18.77" x2="38.64" y2="11.45"/><polygon class="cls-10" points="24 44 40 36.7 40 24.68 24 25 24 44"/><polygon class="cls-11" points="8 36.7 24 44 24 25 8 24.68 8 36.7"/><polygon class="cls-3" points="8 17 24.09 25 17.91 31.94 1.96 24.55 8 17"/><polygon class="cls-3" points="24.09 25 40 17 47 23.4 30.89 30.69 24.09 25"/><g class="cls-12"><polygon class="cls-13" points="18 36 24 37 30 36 24 42 18 36"/><polygon class="cls-13" points="27 38 21 38 21 29 24 30 27 29 27 38"/></g></g></g></svg>