<svg xmlns="http://www.w3.org/2000/svg" xmlns:xlink="http://www.w3.org/1999/xlink" viewBox="0 0 24 24"><defs><style>.cls-1{fill:#484a32;}.cls-2{fill:#8e6f34;}.cls-3{fill:#ddab65;}.cls-4,.cls-5,.cls-6{opacity:0.9;}.cls-4{fill:url(#未命名的渐变_76);}.cls-5{fill:url(#未命名的渐变_76-2);}.cls-6{fill:url(#未命名的渐变_76-3);}.cls-7,.cls-8,.cls-9{fill:none;stroke-linecap:round;stroke-miterlimit:10;stroke-width:0.5px;}.cls-7{stroke:url(#未命名的渐变_91);}.cls-8{stroke:url(#未命名的渐变_91-2);}.cls-9{stroke:url(#未命名的渐变_91-3);}.cls-10{fill:url(#未命名的渐变_40);}.cls-11{fill:url(#未命名的渐变_25);}.cls-12{opacity:0.3;}.cls-13{fill:#261302;}</style><linearGradient id="未命名的渐变_76" x1="12" y1="2" x2="12" y2="9" gradientUnits="userSpaceOnUse"><stop offset="0" stop-color="#009acc"/><stop offset="0.22" stop-color="#009ece"/><stop offset="0.44" stop-color="#00abd5"/><stop offset="0.68" stop-color="#00c0e0"/><stop offset="0.91" stop-color="#00ddf0"/><stop offset="1" stop-color="#00eaf7"/></linearGradient><linearGradient id="未命名的渐变_76-2" x1="8.5" y1="6.58" x2="8.5" y2="12.34" xlink:href="#未命名的渐变_76"/><linearGradient id="未命名的渐变_76-3" x1="15.5" y1="5.5" x2="15.5" y2="14" xlink:href="#未命名的渐变_76"/><linearGradient id="未命名的渐变_91" x1="-283.02" y1="-412.62" x2="-275.2" y2="-412.62" gradientTransform="matrix(0.45, -0.89, -0.89, -0.45, -232.24, -421.08)" gradientUnits="userSpaceOnUse"><stop offset="0" stop-color="#fff" stop-opacity="0"/><stop offset="0.12" stop-color="#fff" stop-opacity="0.02"/><stop offset="0.24" stop-color="#fffefe" stop-opacity="0.07"/><stop offset="0.37" stop-color="#fffcfe" stop-opacity="0.15"/><stop offset="0.5" stop-color="#fff9fd" stop-opacity="0.26"/><stop offset="0.63" stop-color="#fff6fc" stop-opacity="0.41"/><stop offset="0.76" stop-color="#fff3fa" stop-opacity="0.59"/><stop offset="0.89" stop-color="#ffeef9" stop-opacity="0.8"/><stop offset="1" stop-color="#ffeaf7"/></linearGradient><linearGradient id="未命名的渐变_91-2" x1="4.75" y1="7.25" x2="12.25" y2="7.25" gradientTransform="matrix(1, 0, 0, 1, 0, 0)" xlink:href="#未命名的渐变_91"/><linearGradient id="未命名的渐变_91-3" x1="-1151.25" y1="7.25" x2="-1143.75" y2="7.25" gradientTransform="matrix(-1, 0, 0, 1, -1132, 0)" xlink:href="#未命名的渐变_91"/><linearGradient id="未命名的渐变_40" x1="12" y1="17" x2="20" y2="17" gradientUnits="userSpaceOnUse"><stop offset="0" stop-color="#ba8349"/><stop offset="1" stop-color="#bf8b4e"/></linearGradient><linearGradient id="未命名的渐变_25" x1="4" y1="17" x2="12" y2="17" gradientUnits="userSpaceOnUse"><stop offset="0" stop-color="#c48c53"/><stop offset="1" stop-color="#c9975a"/></linearGradient></defs><title>24</title><g id="图层_20" data-name="图层 20"><g id="_24" data-name="24"><polygon class="cls-1" points="4 13.71 12 13.71 12 5 4 8.07 4 13.71"/><polygon class="cls-2" points="20 14.73 12 14.73 12 5 20 8.59 20 14.73"/><polygon class="cls-3" points="12 5 15 5.5 22.59 9.48 20 9 12 5"/><polygon class="cls-3" points="12 5 4 9 1.29 9.48 9 5.5 12 5"/><polygon class="cls-4" points="12 2 5 5.5 12 9 19 5.5 12 2"/><polygon class="cls-5" points="12 13 5 12.64 5 5.5 12 9 12 13"/><polygon class="cls-6" points="12 14 19 13.52 19 5.5 12 9 12 14"/><line class="cls-7" x1="12" y1="9" x2="12" y2="17.18"/><line class="cls-8" x1="12" y1="9" x2="5" y2="5.5"/><line class="cls-9" x1="12" y1="9" x2="19" y2="5.5"/><polygon class="cls-10" points="12 22 20 18.43 20 12 12 13 12 22"/><polygon class="cls-11" points="4 18.43 12 22 12 13 4 12 4 18.43"/><polygon class="cls-3" points="4 9 12 13 9.43 15.83 2 12.39 4 9"/><polygon class="cls-3" points="12 13 20 9 22.71 11.86 15.21 15.25 12 13"/><g class="cls-12"><polygon class="cls-13" points="9.5 18 12 18.5 14.5 18 12 21 9.5 18"/><polygon class="cls-13" points="13 19.5 11 19.5 11 15 12 15.5 13 15 13 19.5"/></g></g></g></svg>